<svg width="218" height="25" viewBox="0 0 218 25" fill="none" xmlns="http://www.w3.org/2000/svg">
<path d="M0.636364 5.29545L1.40909 0.727272H21.0795L20.3068 5.29545H13.25L10.1591 24H4.61364L7.70455 5.29545H0.636364ZM22.3455 24.3295C20.5197 24.3295 19.0045 23.9697 17.8 23.25C16.603 22.5227 15.7621 21.4886 15.2773 20.1477C14.7924 18.7992 14.7053 17.197 15.0159 15.3409C15.3189 13.5379 15.9364 11.9621 16.8682 10.6136C17.8076 9.25758 18.9894 8.20454 20.4136 7.45454C21.8379 6.69697 23.425 6.31818 25.175 6.31818C26.4174 6.31818 27.5197 6.51136 28.4818 6.89773C29.4439 7.28409 30.2394 7.85985 30.8682 8.625C31.497 9.38258 31.925 10.3144 32.1523 11.4205C32.3795 12.5265 32.372 13.7955 32.1295 15.2273L31.9136 16.6136H16.7545L17.2659 13.3864H27.2659C27.3568 12.7955 27.3076 12.2689 27.1182 11.8068C26.9288 11.3447 26.622 10.9848 26.1977 10.7273C25.7811 10.4621 25.2697 10.3295 24.6636 10.3295C24.05 10.3295 23.4742 10.4735 22.9364 10.7614C22.4061 11.0417 21.9553 11.4205 21.5841 11.8977C21.2129 12.375 20.9705 12.9129 20.8568 13.5114L20.2545 16.8182C20.1333 17.553 20.1674 18.1818 20.3568 18.7045C20.5462 19.2273 20.872 19.6288 21.3341 19.9091C21.7962 20.1818 22.3909 20.3182 23.1182 20.3182C23.603 20.3182 24.0576 20.2538 24.4818 20.125C24.9061 19.9886 25.2848 19.7879 25.6182 19.5227C25.9591 19.25 26.2356 18.9205 26.4477 18.5341L31.5159 18.6818C31.1068 19.8258 30.4742 20.822 29.6182 21.6705C28.7621 22.5114 27.7167 23.1667 26.4818 23.6364C25.2545 24.0985 23.8758 24.3295 22.3455 24.3295ZM38.4153 24.3295C36.5744 24.3295 35.0555 23.9508 33.8585 23.1932C32.6691 22.4356 31.8358 21.3826 31.3585 20.0341C30.8812 18.678 30.7941 17.1098 31.0972 15.3295C31.385 13.5417 31.9949 11.9735 32.9267 10.625C33.8585 9.26894 35.0479 8.21212 36.4949 7.45454C37.9419 6.69697 39.5782 6.31818 41.404 6.31818C43.0176 6.31818 44.3737 6.60985 45.4722 7.19318C46.5782 7.77651 47.3775 8.60227 47.8699 9.67045C48.3699 10.7311 48.5176 11.9773 48.3131 13.4091H43.1199C43.1653 12.5227 42.9835 11.8258 42.5744 11.3182C42.1653 10.803 41.5706 10.5455 40.7903 10.5455C40.1312 10.5455 39.5252 10.7273 38.9722 11.0909C38.4267 11.447 37.9608 11.9773 37.5744 12.6818C37.1956 13.3788 36.9229 14.2424 36.7562 15.2727C36.5896 16.303 36.5782 17.1742 36.7222 17.8864C36.8737 18.5909 37.1578 19.125 37.5744 19.4886C37.9987 19.8447 38.5366 20.0227 39.1881 20.0227C39.7032 20.0227 40.1805 19.9129 40.6199 19.6932C41.0593 19.4735 41.4419 19.1515 41.7676 18.7273C42.0934 18.2955 42.3472 17.7727 42.529 17.1591H47.7108C47.4153 18.6061 46.8434 19.8674 45.9949 20.9432C45.154 22.0114 44.0896 22.8447 42.8017 23.4432C41.5138 24.0341 40.0517 24.3295 38.4153 24.3295ZM53.4568 14.0455L51.7977 24H46.2409L50.1045 0.727272H55.4795L54.0023 9.75H54.1955C54.7561 8.67424 55.5364 7.83333 56.5364 7.22727C57.5364 6.62121 58.6955 6.31818 60.0136 6.31818C61.2258 6.31818 62.2409 6.59091 63.0591 7.13636C63.8773 7.67424 64.4568 8.43561 64.7977 9.42045C65.1386 10.4053 65.1992 11.5568 64.9795 12.875L63.1159 24H57.5591L59.2409 13.9659C59.3924 12.9962 59.2674 12.2386 58.8659 11.6932C58.4644 11.1477 57.8205 10.875 56.9341 10.875C56.3508 10.875 55.8129 11.0038 55.3205 11.2614C54.8356 11.5114 54.4303 11.8712 54.1045 12.3409C53.7788 12.8106 53.5629 13.3788 53.4568 14.0455ZM67.0256 24L70.8892 0.727272H87.1165L86.3438 5.29545H75.7415L74.9688 10.0682H84.7415L83.9688 14.6477H74.196L73.4233 19.4318H84.0256L83.2528 24H67.0256ZM92.996 0.727272L89.1324 24H83.5756L87.4392 0.727272H92.996ZM97.583 24.3295C95.7572 24.3295 94.242 23.9697 93.0375 23.25C91.8405 22.5227 90.9996 21.4886 90.5148 20.1477C90.0299 18.7992 89.9428 17.197 90.2534 15.3409C90.5564 13.5379 91.1739 11.9621 92.1057 10.6136C93.0451 9.25758 94.2269 8.20454 95.6511 7.45454C97.0754 6.69697 98.6625 6.31818 100.412 6.31818C101.655 6.31818 102.757 6.51136 103.719 6.89773C104.681 7.28409 105.477 7.85985 106.106 8.625C106.734 9.38258 107.162 10.3144 107.39 11.4205C107.617 12.5265 107.609 13.7955 107.367 15.2273L107.151 16.6136H91.992L92.5034 13.3864H102.503C102.594 12.7955 102.545 12.2689 102.356 11.8068C102.166 11.3447 101.859 10.9848 101.435 10.7273C101.019 10.4621 100.507 10.3295 99.9011 10.3295C99.2875 10.3295 98.7117 10.4735 98.1739 10.7614C97.6436 11.0417 97.1928 11.4205 96.8216 11.8977C96.4504 12.375 96.208 12.9129 96.0943 13.5114L95.492 16.8182C95.3708 17.553 95.4049 18.1818 95.5943 18.7045C95.7837 19.2273 96.1095 19.6288 96.5716 19.9091C97.0337 20.1818 97.6284 20.3182 98.3557 20.3182C98.8405 20.3182 99.2951 20.2538 99.7193 20.125C100.144 19.9886 100.522 19.7879 100.856 19.5227C101.197 19.25 101.473 18.9205 101.685 18.5341L106.753 18.6818C106.344 19.8258 105.712 20.822 104.856 21.6705C104 22.5114 102.954 23.1667 101.719 23.6364C100.492 24.0985 99.1133 24.3295 97.583 24.3295ZM105.585 24L108.494 6.54545H113.778L113.255 9.75H113.448C113.979 8.68939 114.729 7.85227 115.698 7.23864C116.668 6.625 117.751 6.31818 118.948 6.31818C120.153 6.31818 121.134 6.62879 121.891 7.25C122.657 7.87121 123.07 8.70455 123.13 9.75H123.312C123.812 8.71212 124.585 7.88258 125.63 7.26136C126.683 6.63258 127.857 6.31818 129.153 6.31818C130.789 6.31818 132.035 6.84848 132.891 7.90909C133.755 8.96212 134.032 10.4091 133.721 12.25L131.766 24H126.221L127.994 13.5227C128.115 12.6515 127.986 11.9886 127.607 11.5341C127.236 11.072 126.695 10.8409 125.982 10.8409C125.217 10.8409 124.577 11.0871 124.062 11.5795C123.554 12.072 123.24 12.7386 123.119 13.5795L121.357 24H116.005L117.789 13.4659C117.903 12.6553 117.778 12.0152 117.414 11.5455C117.058 11.0758 116.516 10.8409 115.789 10.8409C115.312 10.8409 114.869 10.9583 114.46 11.1932C114.051 11.4205 113.706 11.7462 113.426 12.1705C113.153 12.5947 112.975 13.0947 112.891 13.6705L111.141 24H105.585ZM140.089 24.3295C138.263 24.3295 136.748 23.9697 135.544 23.25C134.347 22.5227 133.506 21.4886 133.021 20.1477C132.536 18.7992 132.449 17.197 132.76 15.3409C133.063 13.5379 133.68 11.9621 134.612 10.6136C135.551 9.25758 136.733 8.20454 138.157 7.45454C139.582 6.69697 141.169 6.31818 142.919 6.31818C144.161 6.31818 145.263 6.51136 146.226 6.89773C147.188 7.28409 147.983 7.85985 148.612 8.625C149.241 9.38258 149.669 10.3144 149.896 11.4205C150.123 12.5265 150.116 13.7955 149.873 15.2273L149.657 16.6136H134.498L135.01 13.3864H145.01C145.101 12.7955 145.051 12.2689 144.862 11.8068C144.673 11.3447 144.366 10.9848 143.941 10.7273C143.525 10.4621 143.013 10.3295 142.407 10.3295C141.794 10.3295 141.218 10.4735 140.68 10.7614C140.15 11.0417 139.699 11.4205 139.328 11.8977C138.957 12.375 138.714 12.9129 138.601 13.5114L137.998 16.8182C137.877 17.553 137.911 18.1818 138.101 18.7045C138.29 19.2273 138.616 19.6288 139.078 19.9091C139.54 20.1818 140.135 20.3182 140.862 20.3182C141.347 20.3182 141.801 20.2538 142.226 20.125C142.65 19.9886 143.029 19.7879 143.362 19.5227C143.703 19.25 143.979 18.9205 144.191 18.5341L149.26 18.6818C148.851 19.8258 148.218 20.822 147.362 21.6705C146.506 22.5114 145.46 23.1667 144.226 23.6364C142.998 24.0985 141.62 24.3295 140.089 24.3295ZM155.307 14.0455L153.648 24H148.091L151 6.54545H156.284L155.761 9.75H155.955C156.5 8.68182 157.292 7.8447 158.33 7.23864C159.367 6.625 160.534 6.31818 161.83 6.31818C163.049 6.31818 164.068 6.59091 164.886 7.13636C165.705 7.68182 166.284 8.44697 166.625 9.43182C166.966 10.4091 167.023 11.5568 166.795 12.875L164.932 24H159.375L161.045 13.9659C161.212 13.0038 161.095 12.25 160.693 11.7045C160.299 11.1515 159.655 10.875 158.761 10.875C158.178 10.875 157.644 11.0038 157.159 11.2614C156.682 11.5114 156.28 11.8712 155.955 12.3409C155.636 12.8106 155.42 13.3788 155.307 14.0455ZM177.899 6.54545L177.206 10.6364H166.195L166.888 6.54545H177.899ZM169.877 2.36364H175.434L172.752 18.5114C172.699 18.8523 172.706 19.1288 172.774 19.3409C172.85 19.5455 172.987 19.6932 173.184 19.7841C173.388 19.8674 173.638 19.9091 173.934 19.9091C174.138 19.9091 174.365 19.8864 174.615 19.8409C174.865 19.7955 175.055 19.7614 175.184 19.7386L175.365 23.75C175.07 23.8333 174.672 23.928 174.172 24.0341C173.68 24.1477 173.104 24.2197 172.445 24.25C171.112 24.303 170.009 24.1477 169.138 23.7841C168.274 23.4129 167.665 22.8371 167.309 22.0568C166.96 21.2765 166.892 20.2992 167.104 19.125L169.877 2.36364Z" fill="#75FFF7"/>
<path d="M180.707 24L184.57 0.727272H191.843C193.146 0.727272 194.222 0.965909 195.07 1.44318C195.927 1.91288 196.525 2.59091 196.866 3.47727C197.214 4.35606 197.283 5.40909 197.07 6.63636C196.919 7.54545 196.642 8.37879 196.241 9.13636C195.839 9.89394 195.332 10.5341 194.718 11.0568C194.105 11.5795 193.404 11.9394 192.616 12.1364V12.2273C193.449 12.303 194.161 12.5985 194.752 13.1136C195.343 13.6288 195.764 14.3106 196.014 15.1591C196.264 16.0076 196.298 16.9697 196.116 18.0455C195.919 19.2424 195.491 20.2879 194.832 21.1818C194.18 22.0758 193.336 22.7689 192.298 23.2614C191.267 23.7538 190.086 24 188.752 24H180.707ZM181.57 23.2727H188.889C190.593 23.2727 192.033 22.7955 193.207 21.8409C194.389 20.8788 195.116 19.6136 195.389 18.0455C195.57 16.9697 195.487 16.0189 195.139 15.1932C194.79 14.3674 194.23 13.7197 193.457 13.25C192.684 12.7803 191.752 12.5455 190.661 12.5455H183.343L181.57 23.2727ZM183.48 11.8182H190.798C191.843 11.8182 192.752 11.5795 193.525 11.1023C194.298 10.625 194.923 9.99242 195.4 9.20455C195.877 8.41667 196.192 7.56061 196.343 6.63636C196.616 4.97727 196.336 3.70076 195.502 2.80682C194.677 1.9053 193.411 1.45454 191.707 1.45454H185.161L183.48 11.8182ZM204.098 24H198.007L201.87 0.727272H208.552C210.689 0.727272 212.446 1.18939 213.825 2.11364C215.204 3.0303 216.158 4.35227 216.689 6.07954C217.219 7.79924 217.28 9.86364 216.87 12.2727C216.446 14.7424 215.658 16.8523 214.507 18.6023C213.363 20.3523 211.908 21.6894 210.143 22.6136C208.386 23.5379 206.37 24 204.098 24ZM198.859 23.2727H204.234C206.348 23.2727 208.23 22.8258 209.882 21.9318C211.541 21.0379 212.908 19.7689 213.984 18.125C215.06 16.4811 215.78 14.5303 216.143 12.2727C216.514 9.9697 216.469 8.01515 216.007 6.40909C215.545 4.79545 214.677 3.56818 213.405 2.72727C212.139 1.87879 210.477 1.45454 208.416 1.45454H202.473L198.859 23.2727Z" fill="white"/>
</svg>
